<svg xmlns="http://www.w3.org/2000/svg" viewBox="0 0 256 256"><defs><style>.cls-1{fill:#2d3034;}.cls-2{fill:#2cdbfd;}.cls-3{fill:red;}</style></defs><title>Asset 4</title><g id="Layer_2" data-name="Layer 2"><g id="Layer_1-2" data-name="Layer 1"><rect class="cls-1" width="256" height="256"/><path class="cls-2" d="M197.35,44.8a108.29,108.29,0,0,1,39,83.2H228.4a100.29,100.29,0,0,0-36.12-77.12Z"/><path class="cls-2" d="M88.9,27a107.26,107.26,0,0,1,22.94-6.09A109.48,109.48,0,0,1,135.41,20a108,108,0,0,1,45.21,13.37l-3.85,6.92a99.93,99.93,0,0,0-41.89-12.39,101.39,101.39,0,0,0-21.87.87,99.19,99.19,0,0,0-21.25,5.65Z"/><path class="cls-2" d="M31.1,176.41a108,108,0,0,1-11.2-41.67l7.9-.49a100,100,0,0,0,10.38,38.62Z"/><path class="cls-2" d="M235.11,144.16a107.65,107.65,0,0,1-14.82,40.55l-6.74-4.14A99.82,99.82,0,0,0,227.28,143Z"/><path class="cls-2" d="M156.85,128H144.07a16,16,0,1,1-1.21-6.13,16.22,16.22,0,0,1,1.21,6.13h12.78a28.72,28.72,0,1,0-2.18,11A28.81,28.81,0,0,0,156.85,128Z"/><path class="cls-2" d="M194,128h26.18a93.45,93.45,0,0,1-1.48,16.42,83.77,83.77,0,0,1-7.06,4.86c-1.2.73-2.43,1.43-3.63,2.09s-2.42,1.28-3.67,1.86a79.5,79.5,0,0,1-13.94,25.46,80.94,80.94,0,0,1,.35,16.82,92.13,92.13,0,0,1-53.66,24.22,82.51,82.51,0,0,1-12.35-11.41,79.18,79.18,0,0,1-19.08-3.08,78.24,78.24,0,0,1-17.79-7.58,79.15,79.15,0,0,1-8.07,1.92,82.33,82.33,0,0,1-8.49,1.09,92,92,0,0,1-35.47-73.91,82.81,82.81,0,0,1,12.69-11,80.08,80.08,0,0,1,9.81-27.86,79.15,79.15,0,0,1-1.92-8.07,82.33,82.33,0,0,1-1.09-8.49A91.09,91.09,0,0,1,70.86,55.69a80,80,0,0,1,16.57,2.9,79.79,79.79,0,0,1,27.81-10,82,82,0,0,1,10.94-12.75,91.11,91.11,0,0,1,36.11,6.57c1.93.73,3.78,1.63,5.66,2.47s3.68,1.83,5.45,2.88A80.4,80.4,0,0,1,177,64.23,80.55,80.55,0,0,1,201.76,96a80.22,80.22,0,0,1,15.1,7.47A93.17,93.17,0,0,1,220.18,128H194a66,66,0,1,0-5,25.26A66.1,66.1,0,0,0,194,128Zm-.63-18.07a68.76,68.76,0,0,1,2.07,10.83l9.68-1a76.72,76.72,0,0,0-2.36-12.39Zm-2.31-6.9c.3.79.64,1.57.9,2.38l9.18-3.25c-.29-.92-.68-1.82-1-2.72Zm-3-6.62,1.16,2.27L198,94.46l-1.32-2.59Zm-3.73-6.25,1.38,2.14L194,87.16l-1.58-2.45Zm-4.39-5.81c.57.63,1.06,1.32,1.6,2l7.68-6c-.61-.76-1.18-1.54-1.83-2.27Zm-5-5.31c.62.58,1.23,1.17,1.81,1.8l7-6.78c-.66-.71-1.36-1.39-2.07-2Zm-5.52-4.75c.67.53,1.35,1,2,1.58l6.24-7.48c-.75-.63-1.52-1.21-2.28-1.81ZM126.67,60.21a67.55,67.55,0,0,1,11,.66l1.38-9.64a76.8,76.8,0,0,0-12.58-.76Zm-21.41,3.88,2.42-.81L104.76,54l-2.76.93ZM86.21,74.6a68.69,68.69,0,0,1,9.19-6.09L90.71,60a77.45,77.45,0,0,0-10.51,7ZM75.77,84.73l1.67-1.93-7.26-6.49-1.91,2.2Zm-11,18.76a64.67,64.67,0,0,1,4.8-9.91l-8.39-5A75.65,75.65,0,0,0,55.67,100Zm-3.78,14,.45-2.5-9.57-1.86L51.35,116Zm-.22,19.25c-.23-1.56-.34-3.14-.45-4.71a12.1,12.1,0,0,1-.06-1.21l0-1.34-9.74.22,0,1.53c0,.46,0,.91.07,1.37.13,1.8.26,3.6.52,5.39Zm11.92,30.44A66.45,66.45,0,0,1,67,157.75L58.29,162a76.49,76.49,0,0,0,6.45,10.84Zm4.53,5.71L75.55,171,68,177.18c.62.75,1.26,1.47,1.89,2.21Zm5.1,5.19-1.84-1.75-6.83,6.95,2.11,2ZM88,182.73c-.7-.47-1.34-1-2-1.55l-6.05,7.64c.77.59,1.51,1.22,2.31,1.77Zm6.1,4c-.74-.42-1.47-.85-2.18-1.32l-5.2,8.24c.81.54,1.65,1,2.5,1.51Zm12.49,5.63c-.8-.29-1.62-.52-2.41-.85l-3.43,9.12c.9.37,1.84.65,2.75,1Zm14.2,3.09-2.53-.32-1.39,9.65,2.89.36Zm7.28.4-2.55-.07-.36,9.74,2.91.07Zm14.46-1.57a71.78,71.78,0,0,1-10.93,1.47l.5,9.73a81.09,81.09,0,0,0,12.5-1.68Zm24.9-11.06c-.7.49-1.37,1-2.1,1.45l5.37,8.13c.83-.5,1.6-1.09,2.4-1.65Zm22.71-27.91c-.35.77-.68,1.55-1.05,2.31l8.76,4.26c.42-.87.81-1.77,1.21-2.65Zm2.58-6.81-.81,2.41,9.17,3.29.93-2.76Z"/><path class="cls-2" d="M189.74,128a61.55,61.55,0,1,1-4.69-23.63A62.09,62.09,0,0,1,189.74,128h-5.48a57.15,57.15,0,0,0-3.54-19.65,56.26,56.26,0,0,0-44.63-36l-2,13.87a42.39,42.39,0,0,1,33.51,27.05A43,43,0,0,1,170.25,128H159.9a31.87,31.87,0,1,0-2.42,12.2A32,32,0,0,0,159.9,128ZM87.49,140a42.79,42.79,0,0,1-1.62-9,43.78,43.78,0,0,1,.34-9.23,42,42,0,0,1,6.49-17,42.72,42.72,0,0,1,13.1-12.75,41.79,41.79,0,0,1,17.16-6l-1.65-13.91a55.79,55.79,0,0,0-22.89,8A56.76,56.76,0,0,0,81,97.09a56.19,56.19,0,0,0-8.65,22.65A57.18,57.18,0,0,0,74.06,144Zm13.89,20.79a43.32,43.32,0,0,1-5.32-5.17L85.47,164.8a58.17,58.17,0,0,0,7.08,6.87ZM183,139.89,169.29,137a42,42,0,0,1-9.35,18.68,42.42,42.42,0,0,1-17.19,12l4.9,13.12A56.37,56.37,0,0,0,183,139.89Z"/><path class="cls-2" d="M248.92,150.13c-.27,1.52-.56,3-.92,4.53l-10.1-2.24c.33-1.37.59-2.76.83-4.15Z"/><path class="cls-2" d="M244.12,168.36c-.48,1.46-1,2.91-1.6,4.34l-9.64-3.77c.52-1.31,1-2.63,1.46-4Z"/><path class="cls-2" d="M236.59,185.63c-.69,1.37-1.49,2.69-2.25,4l-9-5.2c.69-1.23,1.43-2.43,2.06-3.69Z"/><polygon class="cls-2" points="12.24 169.41 10.76 165.03 20.63 161.91 21.99 165.93 12.24 169.41"/><path class="cls-2" d="M118.45,5.46c1.53-.11,3.06-.25,4.59-.28l.41,10.34c-1.4,0-2.8.16-4.2.26Z"/><path class="cls-2" d="M137.13,5.42c1.53.13,3.06.22,4.59.42l-1.15,10.29c-1.4-.19-2.8-.26-4.2-.38Z"/><path class="cls-2" d="M155.72,8.24c1.5.35,3,.69,4.49,1.12l-2.71,10c-1.36-.4-2.74-.7-4.11-1Z"/><path class="cls-2" d="M240,77.29c.63,1.41,1.27,2.81,1.83,4.25l-9.58,3.92c-.51-1.32-1.11-2.6-1.68-3.89Z"/><path class="cls-2" d="M246.42,95c.43,1.48.82,3,1.16,4.48l-10.07,2.4c-.31-1.38-.66-2.75-1.06-4.1Z"/><path class="cls-2" d="M250.06,113.48c.21,1.53.34,3.06.45,4.59l-10.31.83c-.11-1.41-.23-2.8-.42-4.2Z"/><circle class="cls-3" cx="128" cy="128" r="7.5"/></g></g></svg>